<svg width="675" height="433" viewBox="0 0 675 433" fill="none" xmlns="http://www.w3.org/2000/svg">
<g clip-path="url(#clip0)">
<path d="M250.216 125.108C137.326 212.586 194.203 250.216 125.108 250.216C56.0128 250.216 0 194.203 0 125.108C0 56.0128 56.0128 0 125.108 0C194.203 0 363.107 37.6302 250.216 125.108Z" fill="#F2F2F2"/>
<path d="M276.749 254.271C276.749 268.81 223.175 301.857 152.544 301.857C81.9128 301.857 20.6906 268.81 20.6906 254.271C20.6906 250.634 26.6875 255.15 33.1536 252.005C51.9782 242.831 96.8649 249.593 147.811 249.216C149.383 249.202 150.96 249.194 152.544 249.194C223.175 249.194 276.749 239.732 276.749 254.271Z" fill="#3F3D56"/>
<path opacity="0.1" d="M276.749 254.271C276.749 268.81 223.175 301.857 152.544 301.857C81.9128 301.857 20.6906 268.81 20.6906 254.271C20.6906 250.634 26.6875 255.15 33.1536 252.005C51.9782 242.831 96.8649 249.593 147.811 249.216C149.383 249.202 150.96 249.194 152.544 249.194C223.175 249.194 276.749 239.732 276.749 254.271Z" fill="black"/>
<path d="M276.466 253.998C276.466 268.538 219.209 280.33 148.578 280.33C77.9473 280.33 20.6906 268.538 20.6906 253.998C20.6906 250.362 24.2643 246.903 30.7304 243.758C49.555 234.585 92.8994 228.066 143.845 227.689C145.417 227.675 146.995 227.667 148.578 227.667C219.209 227.667 276.466 239.459 276.466 253.998Z" fill="#3F3D56"/>
<path opacity="0.1" d="M145.366 228.228C139.934 237.085 132.567 244.596 123.818 250.2C115.07 255.803 105.166 259.353 94.8494 260.584C84.5331 261.815 74.072 260.694 64.2505 257.306C54.429 253.917 45.502 248.35 38.1389 241.02C55.9836 233.718 97.072 228.529 145.366 228.228Z" fill="black"/>
<path d="M88.1043 249.739C123.146 249.739 151.552 219.303 151.552 181.758C151.552 144.214 123.146 113.778 88.1043 113.778C53.0628 113.778 24.6561 144.214 24.6561 181.758C24.6561 219.303 53.0628 249.739 88.1043 249.739Z" fill="#3F3D56"/>
<path d="M157.131 76.4289V92.3649L148.948 101.84C148.948 101.84 145.502 100.548 145.502 91.9342L144.21 79.4438L157.131 76.4289Z" fill="#FFB9B9"/>
<path d="M148.948 92.3649C148.948 92.3649 162.3 83.3202 162.731 80.3052C163.161 77.2902 182.112 63.5077 179.097 72.1218C176.083 80.7359 166.607 84.6122 166.607 84.6122C166.607 84.6122 159.285 104.425 152.824 103.994C146.364 103.563 146.364 95.3799 148.948 92.3649Z" fill="#FFB9B9"/>
<path d="M141.195 189.273L139.903 197.026L146.795 195.303V189.273H141.195Z" fill="#FFB9B9"/>
<path d="M142.488 193.581C142.488 193.581 150.452 188.862 150.777 191.006C151.102 193.15 154.547 201.333 156.27 202.195C157.993 203.056 160.146 212.531 156.27 212.101C153.268 211.767 142.256 206.008 137.443 203.428C136.85 203.108 136.403 202.574 136.192 201.935C135.982 201.295 136.025 200.599 136.312 199.991C136.594 199.468 136.789 198.903 136.888 198.318C136.888 197.457 142.488 193.581 142.488 193.581Z" fill="#2F2E41"/>
<path d="M138.611 106.147C138.611 106.147 170.053 120.791 167.038 131.99C164.023 143.188 152.824 190.566 152.824 190.566C152.824 190.566 140.334 193.58 139.473 190.566C138.611 187.551 147.656 140.604 146.795 138.881C145.933 137.158 129.997 125.96 129.997 125.96L97.2635 112.177L111.046 99.2562L138.611 106.147Z" fill="#2F2E41"/>
<path d="M162.3 191.858L166.176 201.764L159.285 204.779L154.978 197.026L162.3 191.858Z" fill="#FFB9B9"/>
<path d="M139.042 35.5119C139.042 35.5119 135.166 40.6804 138.18 43.2646C141.195 45.8488 139.042 55.3243 139.042 55.3243L135.166 66.092L119.66 63.077V45.4181L120.522 36.804C120.522 36.804 128.274 29.4821 129.136 23.8829C129.997 18.2837 139.042 35.5119 139.042 35.5119Z" fill="#FFB9B9"/>
<path opacity="0.1" d="M139.042 35.5119C139.042 35.5119 135.166 40.6804 138.18 43.2646C141.195 45.8488 139.042 55.3243 139.042 55.3243L135.166 66.092L119.66 63.077V45.4181L120.522 36.804C120.522 36.804 128.274 29.4821 129.136 23.8829C129.997 18.2837 139.042 35.5119 139.042 35.5119Z" fill="black"/>
<path d="M113.2 102.702C113.2 102.702 133.443 125.099 133.443 125.96C133.443 126.821 144.21 144.48 144.21 144.48L165.315 191.427C165.315 191.427 157.131 202.625 153.686 201.764C150.24 200.902 125.69 150.941 125.69 150.941C125.69 150.941 121.383 139.742 109.754 137.158C98.1249 134.574 89.0801 125.529 93.3871 115.192C97.6942 104.855 113.2 102.702 113.2 102.702Z" fill="#2F2E41"/>
<path d="M139.042 38.5269C146.654 38.5269 152.824 32.3562 152.824 24.7443C152.824 17.1324 146.654 10.9618 139.042 10.9618C131.43 10.9618 125.259 17.1324 125.259 24.7443C125.259 32.3562 131.43 38.5269 139.042 38.5269Z" fill="#FFB9B9"/>
<path d="M138.611 47.141C138.611 47.141 136.888 57.0472 135.166 57.9086C133.443 58.77 132.151 61.7849 128.274 57.4779C124.398 53.1708 120.952 44.5567 120.952 44.5567L107.6 60.9235L106.308 106.147C106.308 106.147 121.383 102.271 126.121 106.147C130.858 110.024 141.195 109.593 141.195 109.593L139.042 100.979L140.765 86.3351L140.334 72.9832L139.903 63.5077L138.611 47.141Z" fill="#F2F2F2"/>
<path d="M137.094 39.8913C137.094 39.8913 142.918 42.8339 143.349 44.5567C143.78 46.2795 151.532 49.7252 151.532 49.7252C151.532 49.7252 154.547 52.7401 154.547 54.4629C154.547 56.1857 144.21 75.9982 144.21 75.9982C144.21 75.9982 142.057 89.35 142.918 91.9342C143.78 94.5184 141.195 104.425 141.195 104.425L146.364 110.455H141.626C141.626 110.455 136.458 107.87 136.458 106.578C136.458 105.286 137.319 96.2413 137.75 92.3649C138.18 88.4886 138.18 74.706 137.319 69.9683C136.458 65.2305 136.888 52.7401 136.888 49.7251C136.888 46.7102 137.094 39.8913 137.094 39.8913Z" fill="#3F3D56"/>
<path d="M123.752 33.3513C123.752 33.3513 121.814 33.7891 116.215 35.5119C110.615 37.2347 102.001 39.819 98.9864 43.2646C96.8702 45.8128 94.9957 48.5524 93.3872 51.448L95.11 82.4587C95.11 82.4587 91.6644 88.9193 92.0951 92.3649C92.5258 95.8106 95.9715 96.2413 93.3872 103.563C90.803 110.885 85.6345 117.346 90.3723 118.207C95.1101 119.069 107.6 116.054 113.2 117.777C118.799 119.499 125.259 111.316 125.259 111.316C125.259 111.316 116.645 112.177 117.937 108.732C119.23 105.286 133.443 66.5227 130.428 57.9086C127.413 49.2945 123.752 33.3513 123.752 33.3513Z" fill="#3F3D56"/>
<path d="M152.394 52.3094L154.547 54.0323C154.547 54.0323 160.577 75.5675 158.854 77.721C157.131 79.8745 143.349 84.6122 142.487 81.5973C141.626 78.5824 152.394 52.3094 152.394 52.3094Z" fill="#3F3D56"/>
<path d="M88.6494 67.3841C88.6494 67.3841 82.1888 85.9044 82.1888 91.0728C82.1888 96.2413 83.0502 126.391 83.0502 126.391C83.0502 126.391 83.481 139.312 92.5258 134.143C101.571 128.975 92.5258 125.529 92.5258 125.529C92.5258 125.529 92.9565 91.5035 96.4021 86.7658C99.8477 82.028 101.14 75.1368 101.14 75.1368L88.6494 67.3841Z" fill="#FFB9B9"/>
<path d="M159.285 201.333C159.285 201.333 165.746 197.888 167.038 200.472C168.33 203.056 175.221 217.269 174.36 218.992C173.498 220.715 168.761 227.606 163.161 225.883C157.562 224.161 157.132 215.116 157.132 215.116L156.701 204.779L159.285 201.333Z" fill="#2F2E41"/>
<path d="M141.741 21.4151C140.791 21.862 139.665 22.129 139.068 22.9922C138.626 23.6319 138.582 24.4631 138.26 25.1706C137.908 25.8711 137.302 26.411 136.566 26.6802C135.829 26.9495 135.018 26.9279 134.297 26.6198C134.121 25.7618 133.622 25.0042 132.903 24.5034C132.541 24.2647 132.111 24.1487 131.677 24.1725C131.243 24.1964 130.828 24.3587 130.494 24.6357C129.606 25.4821 129.92 26.9579 129.506 28.1124C129.117 28.9246 128.582 29.6582 127.928 30.2767C126.985 31.3644 126.234 32.64 125.099 33.5249C123.963 34.4097 122.242 34.7932 121.114 33.899C120.166 33.147 119.969 31.7597 120.199 30.5715C120.43 29.3833 121.001 28.2891 121.323 27.1225C122.37 23.3316 120.701 19.2843 121.217 15.3856C121.879 10.39 126.125 6.44392 130.864 4.73142C132.836 3.92829 134.995 3.69952 137.092 4.07154C139.26 4.5555 141.111 5.93538 143.187 6.72456C145.407 7.5685 147.821 7.71586 150.144 8.20924C152.467 8.70262 154.857 9.65655 156.205 11.6117C157.146 12.9754 157.469 14.669 158.248 16.1307C159.145 17.7991 160.598 19.1007 162.354 19.8097L159.899 19.6697C160.31 20.7658 160.982 21.7458 161.855 22.5254C160.704 22.7602 159.507 22.602 158.456 22.076C158.475 22.5808 158.597 23.0762 158.815 23.5319C159.033 23.9875 159.342 24.3936 159.723 24.7251C157.834 24.6682 155.841 24.5811 154.244 23.5689C153.462 23.0731 152.824 22.3825 152.088 21.8206C150.52 20.6226 148.573 20.054 146.676 19.5095C145.68 19.2236 144.481 18.826 143.58 19.4667C142.829 20.0003 142.711 20.9584 141.741 21.4151Z" fill="#2F2E41"/>
<path d="M99.8477 46.2795L93.3872 51.448L84.7731 71.2604C84.7731 71.2604 96.8328 80.7359 99.8477 79.4438C102.863 78.1517 108.031 55.3244 108.031 55.3244L99.8477 46.2795Z" fill="#3F3D56"/>
<path d="M196.746 69.9203L169.561 84.8526C169.404 84.9573 169.225 85.0262 169.038 85.0544C168.851 85.0827 168.66 85.0696 168.479 85.016C168.297 84.9625 168.13 84.8698 167.988 84.7446C167.846 84.6193 167.733 84.4645 167.658 84.2911L160.998 70.3712C160.872 69.9744 160.893 69.5454 161.056 69.1624C161.22 68.7795 161.515 68.4679 161.889 68.2846L184.459 56.6509C184.737 56.4837 185.067 56.4249 185.386 56.4858C185.704 56.5467 185.989 56.7231 186.186 56.981L197.46 67.6024C197.571 67.8002 197.641 68.0185 197.665 68.2441C197.689 68.4696 197.667 68.6977 197.6 68.9144C197.533 69.1312 197.423 69.3322 197.276 69.5051C197.13 69.678 196.949 69.8193 196.746 69.9203Z" fill="#2F2E41"/>
<path d="M194.932 67.8641L169.447 82.4305L162.665 70.2077L184.528 58.3185L194.932 67.8641Z" fill="#6C63FF"/>
<path d="M173.549 63.6536C173.682 63.4945 173.68 63.2738 173.544 63.1606C173.408 63.0475 173.191 63.0847 173.058 63.2438C172.925 63.4029 172.928 63.6236 173.063 63.7368C173.199 63.8499 173.416 63.8127 173.549 63.6536Z" fill="#F2F2F2"/>
<path d="M182.93 76.0906C183.018 75.9846 183.017 75.8374 182.926 75.762C182.836 75.6865 182.691 75.7113 182.602 75.8174C182.514 75.9235 182.515 76.0706 182.606 76.1461C182.696 76.2215 182.841 76.1967 182.93 76.0906Z" fill="#F2F2F2"/>
<path d="M54.9725 249.08C54.9725 258.947 49.1077 262.391 41.872 262.391C41.7044 262.391 41.5368 262.389 41.3704 262.385C41.0352 262.378 40.7024 262.362 40.3744 262.34C33.8441 261.878 28.7715 258.256 28.7715 249.08C28.7715 239.586 40.9037 227.604 41.8177 226.716L41.8189 226.714C41.8539 226.679 41.872 226.663 41.872 226.663C41.872 226.663 54.9725 239.214 54.9725 249.08Z" fill="#6C63FF"/>
<path d="M41.3945 260.882L46.1861 254.187L41.3824 261.617L41.3704 262.385C41.0352 262.378 40.7024 262.363 40.3744 262.34L40.8905 252.469L40.8869 252.392L40.8953 252.379L40.9447 251.446L36.129 243.998L40.9592 250.746L40.9713 250.944L41.3607 243.486L37.2383 235.79L41.4114 242.178L41.8177 226.716L41.8189 226.663V226.714L41.7514 238.907L45.8558 234.073L41.7345 239.957L41.626 246.635L45.4591 240.226L41.6103 247.617L41.55 251.33L47.1122 242.41L41.5283 252.625L41.3945 260.882Z" fill="#3F3D56"/>
<path d="M237.952 228.686C237.952 238.553 232.088 241.997 224.852 241.997C224.684 241.997 224.517 241.995 224.35 241.991C224.015 241.984 223.682 241.968 223.354 241.946C216.824 241.484 211.752 237.862 211.752 228.686C211.752 219.192 223.884 207.21 224.798 206.322L224.799 206.32C224.834 206.285 224.852 206.269 224.852 206.269C224.852 206.269 237.952 218.82 237.952 228.686Z" fill="#6C63FF"/>
<path d="M224.375 240.488L229.166 233.793L224.362 241.223L224.35 241.991C224.015 241.984 223.682 241.968 223.354 241.946L223.871 232.075L223.867 231.998L223.875 231.985L223.925 231.052L219.109 223.604L223.939 230.352L223.951 230.55L224.341 223.092L220.218 215.396L224.391 221.784L224.798 206.322L224.799 206.269V206.32L224.731 218.513L228.836 213.679L224.715 219.563L224.606 226.241L228.439 219.832L224.59 227.223L224.53 230.936L230.092 222.016L224.508 232.231L224.375 240.488Z" fill="#3F3D56"/>
<path d="M509.412 148.124H291.62V268.043H509.412V148.124Z" fill="#F2F2F2"/>
<path opacity="0.3" d="M328.118 209.406C338.032 209.406 346.068 201.37 346.068 191.457C346.068 181.543 338.032 173.507 328.118 173.507C318.205 173.507 310.168 181.543 310.168 191.457C310.168 201.37 318.205 209.406 328.118 209.406Z" fill="#6C63FF"/>
<path opacity="0.3" d="M400.516 209.406C410.43 209.406 418.466 201.37 418.466 191.457C418.466 181.543 410.43 173.507 400.516 173.507C390.603 173.507 382.566 181.543 382.566 191.457C382.566 201.37 390.603 209.406 400.516 209.406Z" fill="#6C63FF"/>
<path opacity="0.3" d="M472.914 209.406C482.827 209.406 490.864 201.37 490.864 191.457C490.864 181.543 482.827 173.507 472.914 173.507C463.001 173.507 454.964 181.543 454.964 191.457C454.964 201.37 463.001 209.406 472.914 209.406Z" fill="#6C63FF"/>
<path opacity="0.3" d="M352.351 222.869H303.288V227.656H352.351V222.869Z" fill="#6C63FF"/>
<path opacity="0.3" d="M425.347 222.869H376.284V227.656H425.347V222.869Z" fill="#6C63FF"/>
<path d="M498.343 222.869H449.28V227.656H498.343V222.869Z" fill="#6C63FF"/>
<path d="M675 382.669C675 398.025 618.416 432.929 543.816 432.929C469.217 432.929 404.555 398.025 404.555 382.669C404.555 378.829 410.889 383.598 417.718 380.276C437.6 370.588 485.009 377.729 538.817 377.331C540.477 377.316 542.143 377.308 543.816 377.308C618.416 377.308 675 367.314 675 382.669Z" fill="#3F3D56"/>
<path opacity="0.1" d="M675 382.669C675 398.025 618.416 432.929 543.816 432.929C469.217 432.929 404.555 398.025 404.555 382.669C404.555 378.829 410.889 383.598 417.718 380.276C437.6 370.588 485.009 377.729 538.817 377.331C540.477 377.316 542.143 377.308 543.816 377.308C618.416 377.308 675 367.314 675 382.669Z" fill="black"/>
<path d="M674.701 382.382C674.701 397.738 614.227 410.193 539.628 410.193C465.028 410.193 404.555 397.738 404.555 382.382C404.555 378.541 408.329 374.888 415.159 371.566C435.041 361.878 480.821 354.993 534.629 354.594C536.289 354.579 537.955 354.572 539.628 354.572C614.227 354.572 674.701 367.026 674.701 382.382Z" fill="#3F3D56"/>
<path d="M546.625 357.686C564.483 357.686 578.959 341.268 578.959 321.016C578.959 300.764 564.483 284.346 546.625 284.346C528.767 284.346 514.291 300.764 514.291 321.016C514.291 341.268 528.767 357.686 546.625 357.686Z" fill="#36334A"/>
<path d="M560.83 254.666L512.235 256.161C512.235 256.161 462.383 302.947 497.894 315.657C497.894 315.657 548.494 317.839 558.961 309.615C558.961 309.615 572.044 258.03 560.83 254.666ZM558.587 268.497L506.628 271.861C506.628 271.861 510.366 259.151 525.318 259.151C540.27 259.151 557.092 255.787 558.587 263.637C560.082 271.487 558.587 268.497 558.587 268.497Z" fill="#3F3D56"/>
<path d="M610.545 284.196L546.625 281.954L561.577 218.781C561.577 218.781 621.386 214.295 619.891 229.621C618.395 244.947 610.545 284.196 610.545 284.196Z" fill="#36334A"/>
<path d="M548.838 314.395C548.838 314.395 510.366 321.203 496.535 301.018C482.705 280.832 548.868 291.672 548.868 291.672L554.475 306.998L548.838 314.395Z" fill="#36334A"/>
<path d="M537.28 400.076C546.983 400.076 554.849 392.21 554.849 382.507C554.849 372.804 546.983 364.938 537.28 364.938C527.577 364.938 519.711 372.804 519.711 382.507C519.711 392.21 527.577 400.076 537.28 400.076Z" fill="#36334A"/>
<path d="M538.962 395.216C545.052 395.216 549.989 389.526 549.989 382.507C549.989 375.488 545.052 369.797 538.962 369.797C532.872 369.797 527.935 375.488 527.935 382.507C527.935 389.526 532.872 395.216 538.962 395.216Z" fill="#3F3D56"/>
<path d="M633.347 216.912C633.347 216.912 618.769 208.688 618.022 228.126L605.686 318.586H610.919L625.124 221.771C625.124 221.771 632.226 222.893 633.347 222.893C634.469 222.893 633.347 216.912 633.347 216.912Z" fill="#3F3D56"/>
<path d="M647.874 226.893C647.74 227.373 647.506 227.819 647.186 228.201C646.866 228.583 646.469 228.893 646.019 229.108C645.57 229.324 645.08 229.441 644.582 229.452C644.084 229.463 643.589 229.368 643.131 229.172L626.219 221.941L629.287 215.184L645.954 222.775C646.712 223.121 647.322 223.725 647.674 224.48C648.026 225.235 648.097 226.09 647.874 226.893Z" fill="#36334A"/>
<path d="M545.13 312.232C545.13 312.232 518.216 309.241 510.74 335.034C503.264 360.826 504.011 380.638 497.657 379.143C491.302 377.647 477.845 372.414 477.845 372.414L478.967 380.264C478.967 380.264 502.516 392.226 506.254 379.516C509.992 366.807 512.235 320.082 533.542 321.203C554.849 322.324 558.587 320.082 558.587 320.082L545.13 312.232Z" fill="#3F3D56"/>
<path d="M493.919 299.896C493.919 299.896 472.986 302.513 464.762 317.839C456.538 333.165 452.426 360.826 452.426 360.826H460.276C460.276 360.826 464.762 305.877 488.312 308.867L493.919 299.896Z" fill="#3F3D56"/>
<path d="M479.714 385.497L446.446 364.938C446.446 364.938 444.577 357.462 465.883 354.471C465.883 354.471 506.167 368.56 502.286 373.851C498.404 379.143 485.321 387.366 479.714 385.497Z" fill="#36334A"/>
<path d="M541.48 267.333C542.504 268.449 561.356 286.384 561.356 286.384C561.356 286.384 559.482 298.903 539.313 300.457L505.696 303.046C505.696 303.046 499.342 326.364 491.787 333.815C484.233 341.267 487.7 341.683 484.864 345.315C482.029 348.947 486.009 349.92 481.705 350.273C477.401 350.626 468.509 345.422 468.412 341.398C468.316 337.373 470.826 335.067 471.942 334.043C473.058 333.018 475.887 323.22 477.584 321.148C479.281 319.076 485.703 294.153 485.703 294.153C485.703 294.153 492.113 282.096 501 281.134C509.887 280.172 519.774 275.85 519.774 275.85" fill="#2F2E41"/>
<path opacity="0.1" d="M541.48 267.333C542.504 268.449 561.356 286.384 561.356 286.384C561.356 286.384 559.482 298.903 539.313 300.457L505.696 303.046C505.696 303.046 499.342 326.364 491.787 333.815C484.233 341.267 487.7 341.683 484.864 345.315C482.029 348.947 486.009 349.92 481.705 350.273C477.401 350.626 468.509 345.422 468.412 341.398C468.316 337.373 470.826 335.067 471.942 334.043C473.058 333.018 475.887 323.22 477.584 321.148C479.281 319.076 485.703 294.153 485.703 294.153C485.703 294.153 492.113 282.096 501 281.134C509.887 280.172 519.774 275.85 519.774 275.85" fill="black"/>
<path d="M508.871 207.471C508.871 207.471 501.797 188.248 496.954 194.373C492.112 200.498 504.746 210.556 504.746 210.556L508.871 207.471Z" fill="#A0616A"/>
<path d="M546.138 217.506L542.11 215.802C542.11 215.802 534.716 220.798 534.229 222.42C533.743 224.043 534.797 223.475 531.893 224.902C528.989 226.33 521.055 229.785 520.001 230.352C518.946 230.92 507.005 209.794 509.861 206.76C509.861 206.76 504.516 208.687 502.083 207.957C502.083 207.957 508.157 237.408 509.082 241.399C510.006 245.39 512.164 245.861 516.187 246.007C520.21 246.154 544.643 238.985 544.643 238.985L546.138 217.506Z" fill="#575A89"/>
<path d="M483.117 344.082C483.117 344.082 482.913 348.261 483.611 348.741C484.308 349.221 488.619 359.387 481.98 360.368C475.34 361.349 471.695 360.072 470.089 360.612C468.484 361.152 442.019 358.969 442.223 354.79C442.427 350.612 455.659 351.703 455.659 351.703C455.659 351.703 468.766 345.511 471.22 341.648C473.674 337.786 483.117 344.082 483.117 344.082Z" fill="#2F2E41"/>
<path opacity="0.1" d="M483.117 344.082C483.117 344.082 482.913 348.261 483.611 348.741C484.308 349.221 488.619 359.387 481.98 360.368C475.34 361.349 471.695 360.072 470.089 360.612C468.484 361.152 442.019 358.969 442.223 354.79C442.427 350.612 455.659 351.703 455.659 351.703C455.659 351.703 468.766 345.511 471.22 341.648C473.674 337.786 483.117 344.082 483.117 344.082Z" fill="black"/>
<path d="M496.773 366.09C496.773 366.09 492.748 383.627 489.795 383.449C486.842 383.27 465.998 373.126 463.433 371.117C460.14 368.537 460.27 363.978 464.05 364.936C467.83 365.893 478.521 365.034 480.339 363.104L485.011 358.14L496.773 366.09Z" fill="#2F2E41"/>
<path d="M538.038 268.657C539.141 269.696 572.688 298.154 572.688 298.154C572.688 298.154 571.729 310.776 551.726 313.792L518.386 318.818C518.386 318.818 513.744 342.536 506.751 350.517C499.758 358.498 503.246 358.661 500.683 362.489C498.119 366.318 502.159 366.999 497.892 367.664C493.625 368.329 484.378 363.786 483.989 359.778C483.6 355.771 485.937 353.289 486.975 352.186C488.013 351.083 490.123 341.106 491.665 338.916C493.206 336.726 497.8 311.402 497.8 311.402C497.8 311.402 503.317 298.91 512.11 297.305C520.903 295.7 530.45 290.67 530.45 290.67" fill="#2F2E41"/>
<path d="M568.918 207.003C577.703 207.003 584.825 199.882 584.825 191.096C584.825 182.311 577.703 175.189 568.918 175.189C560.133 175.189 553.011 182.311 553.011 191.096C553.011 199.882 560.133 207.003 568.918 207.003Z" fill="#A0616A"/>
<path d="M577.256 201.026C577.256 201.026 574.87 210.743 578.503 215.724C582.137 220.705 554.201 218.334 554.201 218.334C554.201 218.334 561.762 202.566 558.972 198.899C556.182 195.232 577.256 201.026 577.256 201.026Z" fill="#A0616A"/>
<path d="M541.547 216.305C538.172 219.89 539.322 240.218 539.322 240.218L541.478 258.372C541.478 258.372 538.898 261.665 539.742 262.979C540.585 264.293 541.964 265.591 539.303 266.208C536.643 266.824 530.51 267.813 532.473 270.701C533.114 271.519 533.8 272.301 534.529 273.042C535.154 273.704 535.898 274.472 536.741 275.328C538.715 277.32 541.224 279.771 544.008 282.356C544.797 283.093 545.605 283.836 546.433 284.586C557.055 294.195 570.263 304.366 572.996 299.485C577.572 291.309 580.752 290.141 580.541 283.181C580.331 276.221 586.222 258.36 586.222 258.36C586.222 258.36 593.071 227.877 583.419 218.791L581.91 216.377C581.209 215.255 580.174 214.381 578.949 213.88C577.725 213.379 576.374 213.276 575.087 213.585C570.376 214.711 563.154 216.266 560.025 216.015C555.191 215.625 556.251 213.637 556.251 213.637C556.251 213.637 544.922 212.72 541.547 216.305Z" fill="#575A89"/>
<path d="M526.631 281.327C526.631 281.327 506.952 286.208 509.839 293.087C512.726 299.966 529.762 287.394 529.762 287.394L526.631 281.327Z" fill="#A0616A"/>
<path d="M577.721 196.916C577.33 196.442 577.717 195.748 578.058 195.236C579.884 192.493 580.233 188.59 578.224 185.979C577.432 185.006 576.441 184.214 575.318 183.654C573.742 182.819 572.021 182.291 570.248 182.098C569.304 182.084 568.371 181.9 567.493 181.555C566.938 181.274 564.32 180.357 563.759 180.09C562.523 179.503 560.805 179.757 560.013 178.641C559.256 177.574 559.963 176.112 560.699 175.03C562.375 172.564 566.612 170.521 569.522 169.874C571.731 169.383 574.035 170.073 576.082 171.037C578.441 172.208 580.679 173.608 582.763 175.218C585.626 177.338 588.446 179.689 590.165 182.809C591.885 185.93 592.299 189.994 590.357 192.981C589.952 193.603 589.457 194.165 589.079 194.803C588.154 196.36 587.988 198.243 587.335 199.931C586.849 201.165 586.109 202.284 585.165 203.215C584.22 204.146 583.09 204.868 581.849 205.336C579.86 206.071 577.413 206.275 576.238 208.04L575.689 204.359C575.546 203.895 575.567 203.395 575.747 202.945C575.928 202.494 576.258 202.118 576.682 201.881L579.5 199.508C580.061 199.126 580.488 198.576 580.718 197.937C581.327 195.395 578.374 197.707 577.721 196.916Z" fill="#2F2E41"/>
<path opacity="0.1" d="M549.508 266.971L536.741 275.328C539.273 277.888 542.693 281.2 546.433 284.586C549.977 282.679 553.59 280.614 556.823 278.539C568.651 270.948 578.792 251.886 583.336 242.639C587.879 233.392 584.181 226.27 584.181 226.27C581.171 224.937 577.986 224.04 574.723 223.609C568.801 222.716 549.508 266.971 549.508 266.971Z" fill="black"/>
<path opacity="0.1" d="M547.821 264.343L534.529 273.042C535.154 273.704 535.898 274.472 536.741 275.328C538.715 277.32 541.224 279.771 544.008 282.356C547.784 280.339 551.68 278.129 555.136 275.911C566.964 268.319 577.105 249.258 581.649 240.011C586.192 230.764 573.967 234.081 573.967 234.081C573.967 234.081 580.311 231.21 574.389 230.317C568.468 229.424 547.821 264.343 547.821 264.343Z" fill="black"/>
<path d="M583.597 224.68C583.597 224.68 587.295 231.802 582.752 241.049C578.208 250.296 568.067 269.358 556.239 276.949C544.412 284.54 527.49 292.018 527.49 292.018C527.49 292.018 525.885 283.225 523.176 282.235L548.924 265.381C548.924 265.381 568.217 221.126 574.139 222.019C577.402 222.45 580.587 223.347 583.597 224.68Z" fill="#575A89"/>
<path d="M531.299 318.586V362.321H536.159V317.839L531.299 318.586Z" fill="#3F3D56"/>
<path d="M538.401 345.5C538.401 345.5 547.746 382.133 541.766 387.366C541.766 387.366 533.916 364.19 527.935 367.181L529.804 345.5H538.401Z" fill="#36334A"/>
<path d="M610.919 265.88L562.325 267.375C562.325 267.375 519.337 309.241 554.849 321.951C554.849 321.951 598.584 329.053 609.05 320.829C609.05 320.829 622.133 269.244 610.919 265.88ZM608.676 279.711L556.718 283.075C556.718 283.075 560.456 270.366 575.408 270.366C590.36 270.366 607.181 267.001 608.676 274.851C610.172 282.701 608.676 279.711 608.676 279.711V279.711Z" fill="#3F3D56"/>
<path d="M599.892 400.076C626.833 400.076 648.674 375.307 648.674 344.753C648.674 314.199 626.833 289.43 599.892 289.43C572.951 289.43 551.111 314.199 551.111 344.753C551.111 375.307 572.951 400.076 599.892 400.076Z" fill="#36334A"/>
<path d="M602.135 385.871C622.47 385.871 638.955 367.462 638.955 344.753C638.955 322.044 622.47 303.634 602.135 303.634C581.8 303.634 565.315 322.044 565.315 344.753C565.315 367.462 581.8 385.871 602.135 385.871Z" fill="#3F3D56"/>
<path d="M611.667 344.192C611.666 343.475 611.594 342.759 611.453 342.056L638.955 328.305L637.086 324.193L609.305 337.728C609.025 337.439 608.716 337.181 608.382 336.956L608.403 336.961L616.526 296.532L609.341 296.369L604.565 336.155L605.023 336.251C604.652 336.327 604.292 336.451 603.951 336.617L579.925 311.955L576.529 316.717L601.215 339.428C600.596 340.617 600.224 341.919 600.122 343.255L565.315 357.462L564.568 363.443L600.849 348.184C601.188 349.023 601.667 349.799 602.267 350.476L591.108 388.488H595.22L604.587 352.023C605.002 352.157 605.436 352.226 605.873 352.229C606.716 352.221 607.54 351.974 608.249 351.517L627.741 377.274L633.721 373.162L610.883 348.215C611.407 346.939 611.674 345.572 611.667 344.192Z" fill="#36334A"/>
<path d="M483.534 209.154C493.448 209.154 501.484 201.117 501.484 191.204C501.484 181.29 493.448 173.254 483.534 173.254C473.621 173.254 465.584 181.29 465.584 191.204C465.584 201.117 473.621 209.154 483.534 209.154Z" fill="#6C63FF"/>
<path d="M665.095 375.41C665.095 385.276 659.23 388.721 651.994 388.721C651.827 388.721 651.659 388.719 651.493 388.715C651.157 388.708 650.825 388.692 650.497 388.669C643.966 388.208 638.894 384.586 638.894 375.41C638.894 365.916 651.026 353.934 651.94 353.046L651.941 353.044C651.976 353.009 651.994 352.993 651.994 352.993C651.994 352.993 665.095 365.544 665.095 375.41Z" fill="#6C63FF"/>
<path d="M651.517 387.212L656.308 380.517L651.505 387.947L651.493 388.715C651.157 388.708 650.825 388.692 650.497 388.669L651.013 378.799L651.009 378.722L651.018 378.709L651.067 377.776L646.251 370.328L651.081 377.076L651.093 377.274L651.483 369.816L647.361 362.12L651.534 368.508L651.94 353.046L651.941 352.993V353.044L651.874 365.237L655.978 360.403L651.857 366.287L651.748 372.965L655.581 366.556L651.733 373.947L651.672 377.66L657.234 368.74L651.651 378.955L651.517 387.212Z" fill="#3F3D56"/>
</g>
<defs>
<clipPath id="clip0">
<rect width="675" height="432.929" fill="white"/>
</clipPath>
</defs>
</svg>
